<svg width="87" height="87" viewBox="0 0 87 87" fill="none" xmlns="http://www.w3.org/2000/svg">
<g filter="url(#filter0_d_394_1775)">
<circle cx="47.5" cy="39.5" r="27.5" fill="url(#paint0_linear_394_1775)"/>
</g>
<path d="M38 34H40V46H38V34ZM41 34H42V46H41V34ZM43 34H46V46H43V34ZM47 34H48V46H47V34ZM50 34H52V46H50V34ZM53 34H56V46H53V34ZM57 34H58V46H57V34Z" fill="white"/>
<g filter="url(#filter1_d_394_1775)">
<path d="M38 34H40V46H38V34ZM41 34H42V46H41V34ZM43 34H46V46H43V34ZM47 34H48V46H47V34ZM50 34H52V46H50V34ZM53 34H56V46H53V34ZM57 34H58V46H57V34Z" fill="white"/>
</g>
<defs>
<filter id="filter0_d_394_1775" x="0" y="0" width="87" height="87" filterUnits="userSpaceOnUse" color-interpolation-filters="sRGB">
<feFlood flood-opacity="0" result="BackgroundImageFix"/>
<feColorMatrix in="SourceAlpha" type="matrix" values="0 0 0 0 0 0 0 0 0 0 0 0 0 0 0 0 0 0 127 0" result="hardAlpha"/>
<feOffset dx="-4" dy="4"/>
<feGaussianBlur stdDeviation="8"/>
<feComposite in2="hardAlpha" operator="out"/>
<feColorMatrix type="matrix" values="0 0 0 0 0 0 0 0 0 0 0 0 0 0 0 0 0 0 0.25 0"/>
<feBlend mode="normal" in2="BackgroundImageFix" result="effect1_dropShadow_394_1775"/>
<feBlend mode="normal" in="SourceGraphic" in2="effect1_dropShadow_394_1775" result="shape"/>
</filter>
<filter id="filter1_d_394_1775" x="36" y="34" width="22" height="14" filterUnits="userSpaceOnUse" color-interpolation-filters="sRGB">
<feFlood flood-opacity="0" result="BackgroundImageFix"/>
<feColorMatrix in="SourceAlpha" type="matrix" values="0 0 0 0 0 0 0 0 0 0 0 0 0 0 0 0 0 0 127 0" result="hardAlpha"/>
<feOffset dx="-1" dy="1"/>
<feGaussianBlur stdDeviation="0.5"/>
<feComposite in2="hardAlpha" operator="out"/>
<feColorMatrix type="matrix" values="0 0 0 0 0 0 0 0 0 0 0 0 0 0 0 0 0 0 0.4 0"/>
<feBlend mode="normal" in2="BackgroundImageFix" result="effect1_dropShadow_394_1775"/>
<feBlend mode="normal" in="SourceGraphic" in2="effect1_dropShadow_394_1775" result="shape"/>
</filter>
<linearGradient id="paint0_linear_394_1775" x1="47.5" y1="12" x2="47.5" y2="67" gradientUnits="userSpaceOnUse">
<stop stop-color="#6883FF"/>
<stop offset="0.567708" stop-color="#627CFF"/>
<stop offset="1" stop-color="#485EFF"/>
</linearGradient>
</defs>
</svg>
