<svg width="63" height="63" viewBox="0 0 63 63" fill="none" xmlns="http://www.w3.org/2000/svg">
<g filter="url(#filter0_d_368_1764)">
<circle cx="35.5" cy="27.5" r="27.5" fill="#0CBC8B"/>
</g>
<path d="M42.5 28C40.6 28 39 29.6 39 31.5C39 34.1 42.5 38 42.5 38C42.5 38 46 34.1 46 31.5C46 29.6 44.4 28 42.5 28ZM42.5 32.8C41.8 32.8 41.3 32.2 41.3 31.6C41.3 30.9 41.9 30.4 42.5 30.4C43.1 30.4 43.7 31 43.7 31.6C43.8 32.2 43.2 32.8 42.5 32.8ZM38.55 36H28C26.9 36 26 35.11 26 34V22C26 20.89 26.9 20 28 20H44C45.11 20 46 20.89 46 22V27.3C45.42 26.81 44.74 26.44 44 26.22V24H28V27H39.39C37.96 28 37 29.66 37 31.5C37 33 37.72 34.61 38.55 36Z" fill="white"/>
<defs>
<filter id="filter0_d_368_1764" x="0" y="0" width="63" height="63" filterUnits="userSpaceOnUse" color-interpolation-filters="sRGB">
<feFlood flood-opacity="0" result="BackgroundImageFix"/>
<feColorMatrix in="SourceAlpha" type="matrix" values="0 0 0 0 0 0 0 0 0 0 0 0 0 0 0 0 0 0 127 0" result="hardAlpha"/>
<feOffset dx="-4" dy="4"/>
<feGaussianBlur stdDeviation="2"/>
<feComposite in2="hardAlpha" operator="out"/>
<feColorMatrix type="matrix" values="0 0 0 0 0 0 0 0 0 0 0 0 0 0 0 0 0 0 0.25 0"/>
<feBlend mode="normal" in2="BackgroundImageFix" result="effect1_dropShadow_368_1764"/>
<feBlend mode="normal" in="SourceGraphic" in2="effect1_dropShadow_368_1764" result="shape"/>
</filter>
</defs>
</svg>
