<svg width="87" height="87" viewBox="0 0 87 87" fill="none" xmlns="http://www.w3.org/2000/svg">
<g filter="url(#filter0_d_396_1823)">
<circle cx="47.5" cy="39.5" r="27.5" fill="url(#paint0_linear_396_1823)"/>
</g>
<g filter="url(#filter1_d_396_1823)">
<path d="M54.5 40C52.6 40 51 41.6 51 43.5C51 46.1 54.5 50 54.5 50C54.5 50 58 46.1 58 43.5C58 41.6 56.4 40 54.5 40ZM54.5 44.8C53.8 44.8 53.3 44.2 53.3 43.6C53.3 42.9 53.9 42.4 54.5 42.4C55.1 42.4 55.7 43 55.7 43.6C55.8 44.2 55.2 44.8 54.5 44.8ZM50.55 48H40C38.9 48 38 47.11 38 46V34C38 32.89 38.9 32 40 32H56C57.11 32 58 32.89 58 34V39.3C57.42 38.81 56.74 38.44 56 38.22V36H40V39H51.39C49.96 40 49 41.66 49 43.5C49 45 49.72 46.61 50.55 48Z" fill="white"/>
</g>
<defs>
<filter id="filter0_d_396_1823" x="0" y="0" width="87" height="87" filterUnits="userSpaceOnUse" color-interpolation-filters="sRGB">
<feFlood flood-opacity="0" result="BackgroundImageFix"/>
<feColorMatrix in="SourceAlpha" type="matrix" values="0 0 0 0 0 0 0 0 0 0 0 0 0 0 0 0 0 0 127 0" result="hardAlpha"/>
<feOffset dx="-4" dy="4"/>
<feGaussianBlur stdDeviation="8"/>
<feComposite in2="hardAlpha" operator="out"/>
<feColorMatrix type="matrix" values="0 0 0 0 0 0 0 0 0 0 0 0 0 0 0 0 0 0 0.25 0"/>
<feBlend mode="normal" in2="BackgroundImageFix" result="effect1_dropShadow_396_1823"/>
<feBlend mode="normal" in="SourceGraphic" in2="effect1_dropShadow_396_1823" result="shape"/>
</filter>
<filter id="filter1_d_396_1823" x="36" y="32" width="22" height="20" filterUnits="userSpaceOnUse" color-interpolation-filters="sRGB">
<feFlood flood-opacity="0" result="BackgroundImageFix"/>
<feColorMatrix in="SourceAlpha" type="matrix" values="0 0 0 0 0 0 0 0 0 0 0 0 0 0 0 0 0 0 127 0" result="hardAlpha"/>
<feOffset dx="-1" dy="1"/>
<feGaussianBlur stdDeviation="0.5"/>
<feComposite in2="hardAlpha" operator="out"/>
<feColorMatrix type="matrix" values="0 0 0 0 0 0 0 0 0 0 0 0 0 0 0 0 0 0 0.4 0"/>
<feBlend mode="normal" in2="BackgroundImageFix" result="effect1_dropShadow_396_1823"/>
<feBlend mode="normal" in="SourceGraphic" in2="effect1_dropShadow_396_1823" result="shape"/>
</filter>
<linearGradient id="paint0_linear_396_1823" x1="47.5" y1="12" x2="47.5" y2="67" gradientUnits="userSpaceOnUse">
<stop stop-color="#6883FF"/>
<stop offset="0.567708" stop-color="#627CFF"/>
<stop offset="1" stop-color="#485EFF"/>
</linearGradient>
</defs>
</svg>
