<svg width="87" height="87" viewBox="0 0 87 87" fill="none" xmlns="http://www.w3.org/2000/svg">
<g filter="url(#filter0_d_396_1813)">
<circle cx="47.5" cy="39.5" r="27.5" fill="url(#paint0_linear_396_1813)"/>
</g>
<g clip-path="url(#clip0_396_1813)">
<g filter="url(#filter1_d_396_1813)">
<path d="M47 33.5C47.9283 33.5 48.8185 33.8687 49.4749 34.5251C50.1313 35.1815 50.5 36.0717 50.5 37C50.5 37.9283 50.1313 38.8185 49.4749 39.4749C48.8185 40.1313 47.9283 40.5 47 40.5C46.0717 40.5 45.1815 40.1313 44.5251 39.4749C43.8687 38.8185 43.5 37.9283 43.5 37C43.5 36.0717 43.8687 35.1815 44.5251 34.5251C45.1815 33.8687 46.0717 33.5 47 33.5ZM40 36C40.56 36 41.08 36.15 41.53 36.42C41.38 37.85 41.8 39.27 42.66 40.38C42.16 41.34 41.16 42 40 42C39.2044 42 38.4413 41.6839 37.8787 41.1213C37.3161 40.5587 37 39.7956 37 39C37 38.2044 37.3161 37.4413 37.8787 36.8787C38.4413 36.3161 39.2044 36 40 36ZM54 36C54.7956 36 55.5587 36.3161 56.1213 36.8787C56.6839 37.4413 57 38.2044 57 39C57 39.7956 56.6839 40.5587 56.1213 41.1213C55.5587 41.6839 54.7956 42 54 42C52.84 42 51.84 41.34 51.34 40.38C52.2 39.27 52.62 37.85 52.47 36.42C52.92 36.15 53.44 36 54 36ZM40.5 46.25C40.5 44.18 43.41 42.5 47 42.5C50.59 42.5 53.5 44.18 53.5 46.25V48H40.5V46.25ZM35 48V46.5C35 45.11 36.89 43.94 39.45 43.6C38.86 44.28 38.5 45.22 38.5 46.25V48H35ZM59 48H55.5V46.25C55.5 45.22 55.14 44.28 54.55 43.6C57.11 43.94 59 45.11 59 46.5V48Z" fill="white"/>
</g>
</g>
<defs>
<filter id="filter0_d_396_1813" x="0" y="0" width="87" height="87" filterUnits="userSpaceOnUse" color-interpolation-filters="sRGB">
<feFlood flood-opacity="0" result="BackgroundImageFix"/>
<feColorMatrix in="SourceAlpha" type="matrix" values="0 0 0 0 0 0 0 0 0 0 0 0 0 0 0 0 0 0 127 0" result="hardAlpha"/>
<feOffset dx="-4" dy="4"/>
<feGaussianBlur stdDeviation="8"/>
<feComposite in2="hardAlpha" operator="out"/>
<feColorMatrix type="matrix" values="0 0 0 0 0 0 0 0 0 0 0 0 0 0 0 0 0 0 0.25 0"/>
<feBlend mode="normal" in2="BackgroundImageFix" result="effect1_dropShadow_396_1813"/>
<feBlend mode="normal" in="SourceGraphic" in2="effect1_dropShadow_396_1813" result="shape"/>
</filter>
<filter id="filter1_d_396_1813" x="33" y="33.5" width="26" height="16.5" filterUnits="userSpaceOnUse" color-interpolation-filters="sRGB">
<feFlood flood-opacity="0" result="BackgroundImageFix"/>
<feColorMatrix in="SourceAlpha" type="matrix" values="0 0 0 0 0 0 0 0 0 0 0 0 0 0 0 0 0 0 127 0" result="hardAlpha"/>
<feOffset dx="-1" dy="1"/>
<feGaussianBlur stdDeviation="0.5"/>
<feComposite in2="hardAlpha" operator="out"/>
<feColorMatrix type="matrix" values="0 0 0 0 0 0 0 0 0 0 0 0 0 0 0 0 0 0 0.4 0"/>
<feBlend mode="normal" in2="BackgroundImageFix" result="effect1_dropShadow_396_1813"/>
<feBlend mode="normal" in="SourceGraphic" in2="effect1_dropShadow_396_1813" result="shape"/>
</filter>
<linearGradient id="paint0_linear_396_1813" x1="47.5" y1="12" x2="47.5" y2="67" gradientUnits="userSpaceOnUse">
<stop stop-color="#6883FF"/>
<stop offset="0.567708" stop-color="#627CFF"/>
<stop offset="1" stop-color="#485EFF"/>
</linearGradient>
<clipPath id="clip0_396_1813">
<rect width="24" height="24" fill="white" transform="translate(35 28)"/>
</clipPath>
</defs>
</svg>
