<svg width="63" height="63" viewBox="0 0 63 63" fill="none" xmlns="http://www.w3.org/2000/svg">
<g filter="url(#filter0_d_343_1689)">
<circle cx="35.5" cy="27.5" r="27.5" fill="#0CBC8B"/>
</g>
<path d="M40.5 20V24.25L43.36 25.94L42.61 27.16L39 25V20H40.5ZM40 29C41.36 29 42.54 28.5 43.5 27.53C44.5 26.56 45 25.39 45 24C45 22.64 44.5 21.46 43.5 20.5C42.54 19.5 41.36 19 40 19C38.61 19 37.44 19.5 36.47 20.5C35.5 21.46 35 22.64 35 24C35 25.39 35.5 26.56 36.47 27.53C37.44 28.5 38.61 29 40 29ZM37.5 35C37.94 35 38.3 34.84 38.58 34.54C38.86 34.24 39 33.89 39 33.5C39 33.08 38.86 32.73 38.58 32.43C38.3 32.13 37.94 32 37.5 32C37.06 32 36.7 32.13 36.42 32.43C36.14 32.73 36 33.08 36 33.5C36 33.89 36.14 34.24 36.42 34.54C36.7 34.84 37.06 35 37.5 35ZM27 29H35.11C33.7 27.64 33 26 33 24H27V29ZM28.5 35C28.94 35 29.3 34.84 29.58 34.54C29.86 34.24 30 33.89 30 33.5C30 33.08 29.86 32.73 29.58 32.43C29.3 32.13 28.94 32 28.5 32C28.06 32 27.7 32.13 27.42 32.43C27.14 32.73 27 33.08 27 33.5C27 33.89 27.14 34.24 27.42 34.54C27.7 34.84 28.06 35 28.5 35ZM40 17C41.92 17 43.58 17.67 44.95 19.05C46.33 20.42 47 22.08 47 24C47 25.77 46.44 27.29 45.28 28.59C44.13 29.88 42.7 30.66 41 30.91V34C41 34.84 40.67 35.58 40 36.2V38C40 38.27 39.89 38.5 39.7 38.71C39.5 38.91 39.28 39 39 39H38C37.73 39 37.5 38.91 37.29 38.71C37.09 38.5 37 38.27 37 38V37H29V38C29 38.27 28.91 38.5 28.71 38.71C28.5 38.91 28.27 39 28 39H27C26.72 39 26.5 38.91 26.3 38.71C26.11 38.5 26 38.27 26 38V36.2C25.33 35.58 25 34.84 25 34V24C25 22.42 25.67 21.35 27.05 20.8C28.42 20.26 30.41 20 33 20C33.13 20 33.33 20 33.61 20C33.89 20 34.09 20.03 34.22 20.03C35.63 18 37.55 17 40 17Z" fill="white"/>
<defs>
<filter id="filter0_d_343_1689" x="0" y="0" width="63" height="63" filterUnits="userSpaceOnUse" color-interpolation-filters="sRGB">
<feFlood flood-opacity="0" result="BackgroundImageFix"/>
<feColorMatrix in="SourceAlpha" type="matrix" values="0 0 0 0 0 0 0 0 0 0 0 0 0 0 0 0 0 0 127 0" result="hardAlpha"/>
<feOffset dx="-4" dy="4"/>
<feGaussianBlur stdDeviation="2"/>
<feComposite in2="hardAlpha" operator="out"/>
<feColorMatrix type="matrix" values="0 0 0 0 0 0 0 0 0 0 0 0 0 0 0 0 0 0 0.25 0"/>
<feBlend mode="normal" in2="BackgroundImageFix" result="effect1_dropShadow_343_1689"/>
<feBlend mode="normal" in="SourceGraphic" in2="effect1_dropShadow_343_1689" result="shape"/>
</filter>
</defs>
</svg>
