<svg width="87" height="87" viewBox="0 0 87 87" fill="none" xmlns="http://www.w3.org/2000/svg">
<g filter="url(#filter0_d_396_1833)">
<circle cx="47.5" cy="39.5" r="27.5" fill="url(#paint0_linear_396_1833)"/>
</g>
<g clip-path="url(#clip0_396_1833)">
<g filter="url(#filter1_d_396_1833)">
<path d="M45 34H41V38H43V36H45M55 38H53V40H51V42H55M57 44H39V32H57M57 30H39C37.89 30 37 30.89 37 32V44C37 44.5304 37.2107 45.0391 37.5858 45.4142C37.9609 45.7893 38.4696 46 39 46H46V48H44V50H52V48H50V46H57C57.5304 46 58.0391 45.7893 58.4142 45.4142C58.7893 45.0391 59 44.5304 59 44V32C59 30.89 58.1 30 57 30Z" fill="white"/>
</g>
</g>
<defs>
<filter id="filter0_d_396_1833" x="0" y="0" width="87" height="87" filterUnits="userSpaceOnUse" color-interpolation-filters="sRGB">
<feFlood flood-opacity="0" result="BackgroundImageFix"/>
<feColorMatrix in="SourceAlpha" type="matrix" values="0 0 0 0 0 0 0 0 0 0 0 0 0 0 0 0 0 0 127 0" result="hardAlpha"/>
<feOffset dx="-4" dy="4"/>
<feGaussianBlur stdDeviation="8"/>
<feComposite in2="hardAlpha" operator="out"/>
<feColorMatrix type="matrix" values="0 0 0 0 0 0 0 0 0 0 0 0 0 0 0 0 0 0 0.25 0"/>
<feBlend mode="normal" in2="BackgroundImageFix" result="effect1_dropShadow_396_1833"/>
<feBlend mode="normal" in="SourceGraphic" in2="effect1_dropShadow_396_1833" result="shape"/>
</filter>
<filter id="filter1_d_396_1833" x="35" y="30" width="24" height="22" filterUnits="userSpaceOnUse" color-interpolation-filters="sRGB">
<feFlood flood-opacity="0" result="BackgroundImageFix"/>
<feColorMatrix in="SourceAlpha" type="matrix" values="0 0 0 0 0 0 0 0 0 0 0 0 0 0 0 0 0 0 127 0" result="hardAlpha"/>
<feOffset dx="-1" dy="1"/>
<feGaussianBlur stdDeviation="0.5"/>
<feComposite in2="hardAlpha" operator="out"/>
<feColorMatrix type="matrix" values="0 0 0 0 0 0 0 0 0 0 0 0 0 0 0 0 0 0 0.4 0"/>
<feBlend mode="normal" in2="BackgroundImageFix" result="effect1_dropShadow_396_1833"/>
<feBlend mode="normal" in="SourceGraphic" in2="effect1_dropShadow_396_1833" result="shape"/>
</filter>
<linearGradient id="paint0_linear_396_1833" x1="47.5" y1="12" x2="47.5" y2="67" gradientUnits="userSpaceOnUse">
<stop stop-color="#6883FF"/>
<stop offset="0.567708" stop-color="#627CFF"/>
<stop offset="1" stop-color="#485EFF"/>
</linearGradient>
<clipPath id="clip0_396_1833">
<rect width="24" height="24" fill="white" transform="translate(36 28)"/>
</clipPath>
</defs>
</svg>
