<svg width="87" height="87" viewBox="0 0 87 87" fill="none" xmlns="http://www.w3.org/2000/svg">
<g filter="url(#filter0_d_396_1828)">
<circle cx="47.5" cy="39.5" r="27.5" fill="url(#paint0_linear_396_1828)"/>
</g>
<g clip-path="url(#clip0_396_1828)">
<g filter="url(#filter1_d_396_1828)">
<path d="M53.5 31V35.25L56.36 36.94L55.61 38.16L52 36V31H53.5ZM53 40C54.36 40 55.54 39.5 56.5 38.53C57.5 37.56 58 36.39 58 35C58 33.64 57.5 32.46 56.5 31.5C55.54 30.5 54.36 30 53 30C51.61 30 50.44 30.5 49.47 31.5C48.5 32.46 48 33.64 48 35C48 36.39 48.5 37.56 49.47 38.53C50.44 39.5 51.61 40 53 40ZM50.5 46C50.94 46 51.3 45.84 51.58 45.54C51.86 45.24 52 44.89 52 44.5C52 44.08 51.86 43.73 51.58 43.43C51.3 43.13 50.94 43 50.5 43C50.06 43 49.7 43.13 49.42 43.43C49.14 43.73 49 44.08 49 44.5C49 44.89 49.14 45.24 49.42 45.54C49.7 45.84 50.06 46 50.5 46ZM40 40H48.11C46.7 38.64 46 37 46 35H40V40ZM41.5 46C41.94 46 42.3 45.84 42.58 45.54C42.86 45.24 43 44.89 43 44.5C43 44.08 42.86 43.73 42.58 43.43C42.3 43.13 41.94 43 41.5 43C41.06 43 40.7 43.13 40.42 43.43C40.14 43.73 40 44.08 40 44.5C40 44.89 40.14 45.24 40.42 45.54C40.7 45.84 41.06 46 41.5 46ZM53 28C54.92 28 56.58 28.67 57.95 30.05C59.33 31.42 60 33.08 60 35C60 36.77 59.44 38.29 58.28 39.59C57.13 40.88 55.7 41.66 54 41.91V45C54 45.84 53.67 46.58 53 47.2V49C53 49.27 52.89 49.5 52.7 49.71C52.5 49.91 52.28 50 52 50H51C50.73 50 50.5 49.91 50.29 49.71C50.09 49.5 50 49.27 50 49V48H42V49C42 49.27 41.91 49.5 41.71 49.71C41.5 49.91 41.27 50 41 50H40C39.72 50 39.5 49.91 39.3 49.71C39.11 49.5 39 49.27 39 49V47.2C38.33 46.58 38 45.84 38 45V35C38 33.42 38.67 32.35 40.05 31.8C41.42 31.26 43.41 31 46 31C46.13 31 46.33 31 46.61 31C46.89 31 47.09 31.03 47.22 31.03C48.63 29 50.55 28 53 28Z" fill="white"/>
</g>
</g>
<defs>
<filter id="filter0_d_396_1828" x="0" y="0" width="87" height="87" filterUnits="userSpaceOnUse" color-interpolation-filters="sRGB">
<feFlood flood-opacity="0" result="BackgroundImageFix"/>
<feColorMatrix in="SourceAlpha" type="matrix" values="0 0 0 0 0 0 0 0 0 0 0 0 0 0 0 0 0 0 127 0" result="hardAlpha"/>
<feOffset dx="-4" dy="4"/>
<feGaussianBlur stdDeviation="8"/>
<feComposite in2="hardAlpha" operator="out"/>
<feColorMatrix type="matrix" values="0 0 0 0 0 0 0 0 0 0 0 0 0 0 0 0 0 0 0.25 0"/>
<feBlend mode="normal" in2="BackgroundImageFix" result="effect1_dropShadow_396_1828"/>
<feBlend mode="normal" in="SourceGraphic" in2="effect1_dropShadow_396_1828" result="shape"/>
</filter>
<filter id="filter1_d_396_1828" x="36" y="28" width="24" height="24" filterUnits="userSpaceOnUse" color-interpolation-filters="sRGB">
<feFlood flood-opacity="0" result="BackgroundImageFix"/>
<feColorMatrix in="SourceAlpha" type="matrix" values="0 0 0 0 0 0 0 0 0 0 0 0 0 0 0 0 0 0 127 0" result="hardAlpha"/>
<feOffset dx="-1" dy="1"/>
<feGaussianBlur stdDeviation="0.5"/>
<feComposite in2="hardAlpha" operator="out"/>
<feColorMatrix type="matrix" values="0 0 0 0 0 0 0 0 0 0 0 0 0 0 0 0 0 0 0.4 0"/>
<feBlend mode="normal" in2="BackgroundImageFix" result="effect1_dropShadow_396_1828"/>
<feBlend mode="normal" in="SourceGraphic" in2="effect1_dropShadow_396_1828" result="shape"/>
</filter>
<linearGradient id="paint0_linear_396_1828" x1="47.5" y1="12" x2="47.5" y2="67" gradientUnits="userSpaceOnUse">
<stop stop-color="#6883FF"/>
<stop offset="0.567708" stop-color="#627CFF"/>
<stop offset="1" stop-color="#485EFF"/>
</linearGradient>
<clipPath id="clip0_396_1828">
<rect width="24" height="24" fill="white" transform="translate(37 26)"/>
</clipPath>
</defs>
</svg>
